<svg id="svg" version="1.1" xmlns="http://www.w3.org/2000/svg" xmlns:xlink="http://www.w3.org/1999/xlink" width="400" height="400.76190476190476" viewBox="0, 0, 400,400.76190476190476"><g id="svgg"><path id="path0" d="M63.800 149.875 C 62.310 152.474,60.731 155.230,60.291 156.000 C 59.851 156.770,59.156 157.985,58.746 158.700 C 56.645 162.362,56.188 163.171,55.074 165.200 C 54.409 166.410,53.487 168.030,53.024 168.800 C 50.755 172.573,50.720 172.203,53.864 177.600 C 54.876 179.336,55.417 180.277,57.256 183.500 C 57.727 184.325,58.748 186.170,59.526 187.600 C 60.303 189.030,61.240 190.650,61.609 191.200 C 61.977 191.750,62.821 193.190,63.485 194.400 C 66.603 200.081,66.563 200.055,67.976 197.300 C 68.512 196.255,69.162 195.130,69.419 194.800 C 69.677 194.470,70.427 193.210,71.086 192.000 C 72.760 188.925,74.147 186.458,76.932 181.600 C 78.256 179.290,79.950 176.276,80.696 174.902 L 82.052 172.404 80.169 168.902 C 79.134 166.976,77.991 164.950,77.629 164.400 C 77.267 163.850,76.709 162.860,76.389 162.200 C 76.069 161.540,75.221 160.064,74.504 158.919 C 73.787 157.775,73.200 156.748,73.200 156.637 C 73.200 156.526,72.635 155.482,71.944 154.318 C 70.420 151.748,69.405 149.977,68.094 147.600 C 67.548 146.610,66.968 145.654,66.805 145.475 C 66.642 145.296,65.290 147.276,63.800 149.875 M312.600 148.851 C 306.413 150.080,304.992 159.574,310.600 162.211 C 314.901 164.233,322.575 163.103,323.919 160.249 C 327.521 152.604,321.949 146.994,312.600 148.851 M118.498 186.492 L 118.600 219.000 127.000 219.000 L 135.400 219.000 135.400 186.600 L 135.400 154.200 126.898 154.092 L 118.395 153.984 118.498 186.492 M165.200 168.416 C 154.822 169.447,146.512 176.008,144.726 184.579 C 141.474 200.189,145.651 212.653,155.695 217.313 C 163.032 220.716,176.647 220.412,182.062 216.723 C 182.646 216.325,183.301 216.000,183.519 216.000 C 184.248 216.000,184.400 214.767,184.400 208.834 C 184.400 202.135,184.412 202.170,182.450 203.180 C 180.537 204.166,179.317 204.657,177.500 205.174 C 176.675 205.408,175.402 205.780,174.672 206.000 C 173.941 206.220,171.972 206.400,170.295 206.400 C 168.619 206.400,167.136 206.220,167.000 206.000 C 166.864 205.780,166.476 205.600,166.138 205.600 C 160.279 205.600,158.811 189.086,164.166 183.409 C 166.908 180.501,173.188 180.535,179.514 183.491 C 180.237 183.828,180.871 184.036,180.924 183.952 C 181.683 182.735,182.800 180.168,182.800 179.642 C 182.800 179.267,182.962 178.789,183.159 178.580 C 183.465 178.257,184.998 174.528,185.727 172.335 C 185.955 171.650,180.743 169.193,179.074 169.198 C 178.674 169.199,178.044 169.044,177.674 168.853 C 176.695 168.348,168.698 168.068,165.200 168.416 M214.600 168.406 C 210.328 168.821,209.858 168.956,205.405 171.034 C 191.852 177.360,189.233 201.114,200.795 212.851 C 203.750 215.850,207.098 218.053,209.421 218.526 C 221.886 221.064,230.042 219.416,236.537 213.047 C 240.823 208.845,242.785 203.785,243.431 195.271 C 243.916 188.883,241.918 181.613,238.396 176.949 C 235.794 173.502,229.394 169.200,226.869 169.200 C 226.479 169.200,225.989 169.039,225.780 168.843 C 225.220 168.318,218.289 168.047,214.600 168.406 M279.200 168.392 C 274.615 168.905,271.420 170.480,268.839 173.499 C 266.902 175.765,266.397 175.603,265.219 172.339 C 263.858 168.567,264.304 168.765,257.443 168.890 L 251.400 169.000 251.400 194.000 L 251.400 219.000 259.700 219.108 L 268.000 219.216 268.000 206.532 C 268.000 188.554,268.931 184.178,273.222 181.989 C 275.975 180.584,280.130 181.245,281.256 183.266 C 282.872 186.167,282.917 186.627,283.161 203.000 L 283.400 219.000 291.708 219.108 L 300.015 219.216 299.884 200.308 C 299.749 180.953,299.704 180.280,298.325 177.223 C 295.161 170.207,288.886 167.310,279.200 168.392 M353.800 168.402 C 343.477 169.566,336.190 175.211,333.663 184.000 C 333.379 184.990,332.971 186.371,332.758 187.070 C 331.519 191.125,332.627 203.275,334.576 207.013 C 334.917 207.666,335.196 208.354,335.198 208.541 C 335.204 209.380,338.791 213.612,340.643 214.965 C 348.905 221.000,363.866 221.439,372.100 215.887 L 373.200 215.146 373.200 208.773 C 373.200 205.268,373.103 202.400,372.984 202.400 C 372.865 202.400,372.028 202.778,371.123 203.239 C 361.573 208.111,351.721 207.105,350.527 201.136 C 350.400 200.502,350.140 199.886,349.948 199.768 C 349.757 199.650,349.600 197.229,349.600 194.388 C 349.600 182.683,355.184 178.628,365.800 182.626 C 369.857 184.153,370.000 184.182,370.000 183.459 C 370.000 183.110,370.360 182.183,370.800 181.400 C 371.240 180.617,371.600 179.717,371.600 179.400 C 371.600 179.083,371.960 178.183,372.400 177.400 C 372.840 176.617,373.200 175.717,373.200 175.400 C 373.200 175.083,373.569 174.168,374.020 173.365 C 374.470 172.563,374.785 171.859,374.720 171.801 C 374.245 171.386,370.924 170.000,370.405 170.000 C 370.050 170.000,369.589 169.851,369.380 169.668 C 368.223 168.658,358.520 167.870,353.800 168.402 M307.784 169.300 C 307.679 169.575,307.639 180.870,307.696 194.400 L 307.800 219.000 316.100 219.108 L 324.400 219.216 324.400 194.008 L 324.400 168.800 316.187 168.800 C 309.986 168.800,307.928 168.922,307.784 169.300 M220.840 180.854 C 226.328 182.689,228.387 195.413,224.506 203.511 C 222.072 208.587,215.330 208.751,212.626 203.800 C 210.449 199.812,210.169 188.432,212.154 184.629 C 214.029 181.037,217.228 179.647,220.840 180.854 M165.800 235.757 C 161.924 237.542,162.664 241.480,167.200 243.207 C 169.819 244.204,170.800 245.129,170.800 246.605 C 170.800 249.099,167.898 249.981,164.834 248.417 C 163.990 247.987,163.187 247.747,163.050 247.884 C 161.632 249.301,167.394 251.006,169.881 249.905 C 173.886 248.132,172.849 244.291,167.705 241.845 C 162.668 239.449,164.288 235.125,169.545 236.936 C 171.402 237.576,172.119 237.153,170.713 236.247 C 169.317 235.348,167.156 235.133,165.800 235.757 M227.200 235.476 C 222.821 237.091,220.932 241.880,222.892 246.400 C 226.068 253.726,234.388 250.728,234.398 242.254 C 234.402 238.205,230.293 234.335,227.200 235.476 M174.000 236.200 C 174.000 236.660,174.510 236.800,176.190 236.800 L 178.381 236.800 178.490 243.500 C 178.583 249.140,178.695 250.200,179.200 250.200 C 179.705 250.200,179.817 249.142,179.910 243.521 L 180.019 236.841 182.078 236.721 C 186.771 236.446,184.624 235.600,179.233 235.600 C 174.848 235.600,174.000 235.697,174.000 236.200 M187.602 240.300 C 187.606 248.854,190.317 252.243,195.328 249.960 C 197.711 248.874,199.626 235.600,197.400 235.600 C 196.897 235.600,196.800 236.447,196.800 240.820 C 196.800 247.562,196.041 249.204,192.926 249.198 C 190.037 249.193,188.800 246.322,188.800 239.623 C 188.800 236.314,188.694 235.600,188.200 235.600 C 187.701 235.600,187.600 236.388,187.602 240.300 M202.800 243.000 L 202.800 250.400 204.169 250.400 C 210.865 250.400,214.451 246.162,212.700 240.319 C 211.690 236.949,209.427 235.615,204.700 235.604 L 202.800 235.600 202.800 243.000 M217.200 243.033 C 217.200 248.802,217.312 250.429,217.700 250.300 C 218.520 250.028,218.627 235.600,217.809 235.600 C 217.286 235.600,217.200 236.644,217.200 243.033 M208.872 237.252 C 214.355 240.078,210.637 250.853,204.817 249.005 C 203.646 248.634,203.536 236.979,204.700 236.677 C 205.562 236.453,207.965 236.784,208.872 237.252 M230.182 237.018 C 234.742 239.182,233.371 249.200,228.514 249.200 C 223.219 249.200,221.701 239.544,226.600 237.022 C 228.103 236.249,228.560 236.249,230.182 237.018 M32.000 243.000 C 32.000 243.531,39.156 243.600,94.000 243.600 C 148.844 243.600,156.000 243.531,156.000 243.000 C 156.000 242.469,148.844 242.400,94.000 242.400 C 39.156 242.400,32.000 242.469,32.000 243.000 M240.900 242.900 C 241.032 243.297,253.809 243.400,303.000 243.400 C 352.191 243.400,364.968 243.297,365.100 242.900 C 365.233 242.501,352.636 242.400,303.000 242.400 C 253.364 242.400,240.767 242.501,240.900 242.900 " stroke="none" fill="#353131" fill-rule="evenodd"></path><path id="path1" d="M0.000 200.200 L 0.000 400.400 200.000 400.400 L 400.000 400.400 400.000 200.200 L 400.000 0.000 200.000 0.000 L 0.000 0.000 0.000 200.200 M68.236 146.900 C 69.047 148.275,70.159 150.210,70.709 151.200 C 71.258 152.190,71.837 153.180,71.996 153.400 C 72.155 153.620,72.820 154.790,73.475 156.000 C 75.125 159.048,75.767 160.167,76.001 160.400 C 76.111 160.510,76.471 161.140,76.801 161.800 C 77.130 162.460,78.165 164.310,79.100 165.912 C 80.035 167.513,80.804 168.953,80.809 169.112 C 80.814 169.270,81.170 169.850,81.600 170.400 C 82.030 170.950,82.386 171.601,82.391 171.846 C 82.399 172.242,88.009 182.387,88.780 183.400 C 89.074 183.786,89.475 184.502,93.658 192.110 C 94.720 194.041,96.221 196.609,96.994 197.818 C 97.767 199.027,98.400 200.096,98.400 200.194 C 98.400 200.292,99.360 202.043,100.534 204.086 C 101.708 206.129,103.211 208.790,103.875 210.000 C 105.308 212.611,106.267 214.290,107.887 217.021 C 110.909 222.114,111.271 222.909,110.726 223.254 C 110.437 223.438,103.625 223.591,95.589 223.594 C 79.132 223.601,80.023 223.764,78.400 220.453 C 77.850 219.330,77.265 218.410,77.100 218.406 C 76.935 218.403,76.800 218.244,76.800 218.054 C 76.800 217.759,72.856 210.673,69.756 205.400 C 69.239 204.520,68.420 203.035,67.937 202.100 C 67.454 201.165,66.922 200.400,66.756 200.400 C 66.437 200.400,64.800 202.550,64.800 202.969 C 64.800 203.104,64.080 204.400,63.200 205.848 C 62.320 207.297,61.600 208.557,61.600 208.649 C 61.600 208.741,61.180 209.487,60.667 210.308 C 60.154 211.129,59.191 212.790,58.526 214.000 C 57.862 215.210,56.905 216.920,56.401 217.800 C 55.897 218.680,54.983 220.300,54.371 221.400 L 53.258 223.400 37.629 223.505 C 29.033 223.562,22.000 223.524,22.000 223.419 C 22.000 223.181,23.086 221.222,28.109 212.400 C 30.301 208.550,32.644 204.410,33.316 203.200 C 33.988 201.990,38.197 194.565,42.669 186.700 C 47.141 178.836,50.804 172.176,50.809 171.900 C 50.814 171.625,51.170 170.950,51.600 170.400 C 52.030 169.850,52.386 169.289,52.391 169.154 C 52.396 169.019,53.750 166.531,55.400 163.626 C 57.050 160.721,58.400 158.177,58.400 157.972 C 58.400 157.768,58.559 157.600,58.753 157.600 C 58.948 157.600,59.210 157.285,59.336 156.900 C 59.462 156.515,60.051 155.390,60.645 154.400 C 61.238 153.410,62.357 151.430,63.131 150.000 C 66.606 143.575,66.362 143.723,68.236 146.900 M321.853 149.118 C 326.024 151.264,326.985 158.305,323.535 161.453 C 319.579 165.063,311.003 164.602,307.873 160.611 C 305.527 157.621,306.585 151.249,309.738 149.380 C 312.427 147.785,318.987 147.643,321.853 149.118 M136.302 186.492 L 136.405 219.184 135.502 219.405 C 135.006 219.527,130.910 219.576,126.400 219.513 L 118.200 219.400 118.098 186.492 L 117.995 153.585 127.098 153.692 L 136.200 153.800 136.302 186.492 M174.600 167.831 C 180.592 168.734,181.188 168.857,181.427 169.244 C 181.548 169.440,181.909 169.600,182.228 169.600 C 185.165 169.600,187.094 172.227,185.606 174.200 C 185.440 174.420,185.081 175.292,184.808 176.139 C 184.536 176.985,184.063 178.155,183.759 178.739 C 183.454 179.322,183.204 180.031,183.202 180.313 C 183.199 181.091,181.212 184.849,180.886 184.696 C 176.421 182.608,173.984 182.000,170.073 182.000 L 166.400 182.000 164.900 183.512 C 164.075 184.344,163.199 185.469,162.954 186.012 C 162.708 186.555,162.271 187.498,161.982 188.107 C 161.001 190.177,161.302 198.856,162.433 201.111 C 164.874 205.976,169.189 206.958,177.574 204.557 C 180.070 203.842,183.279 202.423,183.660 201.864 C 183.802 201.655,184.207 201.594,184.560 201.729 C 185.931 202.255,185.341 216.400,183.948 216.400 C 183.714 216.400,183.046 216.729,182.462 217.132 C 176.172 221.467,157.507 220.937,152.731 216.288 C 152.439 216.004,151.528 215.264,150.708 214.644 C 148.959 213.323,146.444 209.995,145.686 208.000 C 145.170 206.640,144.375 204.283,143.586 201.772 C 142.899 199.585,143.141 188.957,143.954 185.600 C 145.986 177.214,152.590 170.308,160.200 168.610 C 166.211 167.268,169.634 167.083,174.600 167.831 M222.923 167.629 C 224.505 167.865,226.113 168.225,226.495 168.429 C 226.877 168.633,227.464 168.800,227.800 168.800 C 228.136 168.800,228.723 168.959,229.105 169.153 C 229.487 169.348,230.340 169.752,231.000 170.053 C 231.660 170.353,232.290 170.690,232.400 170.802 C 232.510 170.913,233.632 171.772,234.893 172.710 C 238.513 175.402,241.493 179.931,242.717 184.600 C 242.948 185.480,243.331 186.941,243.568 187.846 C 244.098 189.866,244.139 198.486,243.627 200.172 C 243.422 200.847,243.043 202.210,242.785 203.200 C 241.203 209.275,236.408 215.270,231.200 217.684 C 222.599 221.671,207.922 220.686,203.030 215.794 C 202.484 215.247,201.891 214.800,201.714 214.800 C 201.537 214.800,200.854 214.154,200.196 213.364 C 199.538 212.574,198.501 211.331,197.891 210.601 C 196.596 209.051,194.000 203.615,194.000 202.452 C 194.000 202.012,193.808 201.146,193.573 200.528 C 192.940 198.865,193.045 189.076,193.728 185.955 C 195.456 178.058,200.449 172.277,208.200 169.198 C 210.621 168.237,211.691 167.979,214.600 167.658 C 219.170 167.153,219.720 167.151,222.923 167.629 M286.604 167.745 C 293.452 168.972,297.085 172.296,299.999 180.000 C 300.747 181.976,301.107 218.148,300.388 219.014 C 299.744 219.791,283.648 219.888,282.880 219.120 C 282.523 218.763,282.398 214.629,282.394 203.020 C 282.387 186.102,282.292 185.230,280.220 183.100 C 277.572 180.379,271.026 182.411,270.203 186.209 C 270.061 186.864,269.750 187.850,269.513 188.400 C 269.243 189.027,269.011 194.928,268.891 204.200 C 268.758 214.540,268.565 219.089,268.250 219.294 C 267.448 219.818,251.417 219.657,250.880 219.120 C 249.932 218.172,250.217 168.926,251.174 168.414 C 252.049 167.946,263.168 167.851,263.822 168.306 C 264.348 168.672,266.000 172.193,266.000 172.947 C 266.000 174.361,267.126 174.476,268.273 173.180 C 269.737 171.525,273.743 168.800,274.711 168.800 C 275.127 168.800,275.599 168.665,275.761 168.500 C 276.064 168.191,281.019 167.328,282.800 167.273 C 283.350 167.256,285.062 167.468,286.604 167.745 M363.200 167.809 C 368.486 168.603,369.577 168.839,369.829 169.246 C 369.949 169.441,370.363 169.600,370.748 169.600 C 371.628 169.600,374.656 171.044,375.024 171.638 C 375.175 171.883,374.889 173.009,374.390 174.141 C 372.288 178.906,372.000 179.610,372.000 179.983 C 372.000 180.199,371.640 181.017,371.200 181.800 C 370.760 182.583,370.400 183.489,370.400 183.812 C 370.400 184.473,368.805 184.611,367.695 184.047 C 367.313 183.852,366.550 183.515,366.000 183.296 C 365.450 183.078,364.497 182.697,363.881 182.450 C 359.241 180.584,353.081 182.453,351.519 186.200 C 348.836 192.634,349.803 201.699,353.449 204.291 C 357.004 206.819,364.915 206.063,371.103 202.605 C 373.586 201.217,373.601 201.254,373.594 208.724 C 373.587 216.095,373.651 215.854,371.400 217.050 C 361.926 222.085,346.774 221.048,339.557 214.871 C 337.753 213.326,334.400 208.945,334.400 208.132 C 334.400 207.853,334.040 206.983,333.600 206.200 C 333.160 205.417,332.800 204.252,332.800 203.611 C 332.800 202.971,332.643 202.350,332.452 202.232 C 332.139 202.039,331.343 194.300,331.548 193.451 C 331.595 193.259,331.742 191.678,331.877 189.937 C 332.011 188.197,332.274 186.678,332.460 186.563 C 332.647 186.447,332.800 185.821,332.800 185.171 C 332.800 184.521,333.008 183.587,333.262 183.095 C 334.196 181.288,334.400 180.802,334.400 180.377 C 334.400 178.484,342.470 170.400,344.360 170.400 C 344.589 170.400,345.369 170.067,346.095 169.659 C 347.489 168.876,348.276 168.678,353.400 167.825 C 357.578 167.130,358.661 167.128,363.200 167.809 M324.786 168.774 C 325.417 169.953,325.354 218.486,324.720 219.120 C 324.213 219.627,308.691 219.840,307.433 219.357 C 306.408 218.964,306.474 169.030,307.500 168.432 C 308.952 167.586,324.313 167.890,324.786 168.774 M215.060 181.929 C 209.464 185.223,210.092 203.789,215.882 206.209 C 222.355 208.913,226.104 203.203,225.473 191.600 C 225.057 183.968,223.208 181.173,218.609 181.229 C 217.122 181.247,215.764 181.515,215.060 181.929 M169.558 235.188 C 171.738 235.813,172.567 236.752,171.743 237.664 C 171.340 238.108,170.905 238.263,170.639 238.057 C 168.888 236.699,165.977 236.840,165.413 238.311 C 164.965 239.477,165.642 240.213,168.369 241.527 C 171.997 243.274,172.607 243.986,172.571 246.433 C 172.511 250.466,168.105 252.242,163.906 249.926 C 160.903 248.269,162.163 246.433,165.270 247.937 C 167.491 249.012,168.410 249.022,169.525 247.984 C 171.134 246.485,170.462 245.293,167.200 243.861 C 160.135 240.760,162.221 233.084,169.558 235.188 M231.630 235.827 C 236.030 238.051,236.009 246.861,231.596 250.003 C 229.163 251.735,224.515 250.783,223.107 248.264 C 218.782 240.526,224.479 232.213,231.630 235.827 M185.200 235.957 C 185.200 236.870,184.451 237.200,182.377 237.200 L 180.820 237.200 180.710 243.657 C 180.594 250.456,180.340 251.323,178.654 250.676 C 178.085 250.458,178.000 249.566,178.000 243.813 L 178.000 237.200 175.800 237.200 C 173.720 237.200,173.600 237.145,173.600 236.200 L 173.600 235.200 179.400 235.200 C 184.824 235.200,185.200 235.249,185.200 235.957 M189.689 241.073 L 189.888 246.946 191.044 247.871 C 194.517 250.650,196.400 247.664,196.400 239.380 L 196.400 235.200 197.655 235.200 L 198.910 235.200 198.717 240.901 C 198.447 248.844,197.302 250.800,192.920 250.800 C 188.258 250.800,187.200 248.989,187.200 241.008 L 187.200 235.200 188.345 235.200 L 189.490 235.200 189.689 241.073 M210.747 236.360 C 217.860 241.434,211.717 252.824,203.042 250.646 L 202.000 250.385 202.000 243.059 C 202.000 239.030,202.135 235.598,202.300 235.432 C 203.043 234.684,209.371 235.380,210.747 236.360 M218.800 242.776 C 218.800 250.555,218.694 251.074,217.196 250.599 C 216.438 250.358,216.400 249.983,216.400 242.773 L 216.400 235.200 217.600 235.200 L 218.800 235.200 218.800 242.776 M226.778 237.587 C 223.254 239.450,223.295 246.238,226.843 248.308 C 231.711 251.147,234.761 240.559,229.924 237.610 C 228.349 236.650,228.548 236.651,226.778 237.587 M204.800 242.767 C 204.800 248.874,204.992 249.392,206.927 248.507 C 207.407 248.287,208.250 247.896,208.800 247.638 C 211.171 246.527,211.639 238.419,209.333 238.403 C 209.077 238.401,208.807 238.236,208.733 238.036 C 208.660 237.836,207.745 237.545,206.700 237.390 L 204.800 237.109 204.800 242.767 M156.725 242.886 C 156.824 243.743,156.655 244.019,155.925 244.196 C 153.034 244.894,31.409 244.192,31.272 243.477 C 30.887 241.479,26.965 241.590,94.088 241.699 L 156.600 241.800 156.725 242.886 M365.756 242.229 C 366.655 244.572,371.481 244.413,302.885 244.301 L 240.600 244.200 240.475 242.900 L 240.349 241.600 302.932 241.600 C 359.473 241.600,365.538 241.661,365.756 242.229 " stroke="none" fill="#fbfbfb" fill-rule="evenodd"></path><path id="path2" d="M166.100 168.276 C 166.485 168.376,167.115 168.376,167.500 168.276 C 167.885 168.175,167.570 168.093,166.800 168.093 C 166.030 168.093,165.715 168.175,166.100 168.276 M172.305 168.283 C 172.802 168.379,173.522 168.375,173.905 168.275 C 174.287 168.175,173.880 168.096,173.000 168.101 C 172.120 168.105,171.807 168.187,172.305 168.283 M215.700 168.276 C 216.085 168.376,216.715 168.376,217.100 168.276 C 217.485 168.175,217.170 168.093,216.400 168.093 C 215.630 168.093,215.315 168.175,215.700 168.276 M360.900 168.276 C 361.285 168.376,361.915 168.376,362.300 168.276 C 362.685 168.175,362.370 168.093,361.600 168.093 C 360.830 168.093,360.515 168.175,360.900 168.276 M307.467 169.067 C 307.096 169.437,307.129 218.709,307.500 218.938 C 307.665 219.040,307.800 207.801,307.800 193.962 C 307.800 180.123,307.785 168.800,307.767 168.800 C 307.748 168.800,307.613 168.920,307.467 169.067 M80.572 175.103 C 79.897 176.366,78.260 179.290,76.934 181.600 C 74.164 186.427,72.775 188.897,71.086 192.000 C 70.427 193.210,69.677 194.470,69.419 194.800 C 69.162 195.130,68.512 196.255,67.976 197.300 C 67.440 198.345,66.835 199.200,66.631 199.200 C 66.427 199.200,66.607 199.605,67.030 200.100 C 67.837 201.043,68.176 201.602,70.127 205.200 C 71.169 207.120,72.052 208.660,75.297 214.208 C 75.680 214.864,76.940 217.065,78.097 219.100 L 80.200 222.800 95.300 222.800 C 103.605 222.800,110.400 222.693,110.400 222.562 C 110.400 222.285,109.275 220.255,104.993 212.800 C 103.286 209.830,101.348 206.410,100.684 205.200 C 100.021 203.990,99.145 202.522,98.739 201.938 C 98.333 201.354,98.000 200.792,98.000 200.690 C 98.000 200.587,97.010 198.754,95.800 196.618 C 94.590 194.481,93.600 192.568,93.600 192.367 C 93.600 192.165,93.420 192.000,93.200 192.000 C 92.980 192.000,92.800 191.830,92.800 191.622 C 92.800 191.413,91.630 189.230,90.200 186.770 C 88.770 184.309,87.600 182.212,87.600 182.110 C 87.600 182.007,87.267 181.446,86.861 180.862 C 86.455 180.278,85.579 178.810,84.915 177.600 C 81.789 171.904,82.166 172.121,80.572 175.103 M226.101 191.400 C 226.105 192.280,226.187 192.593,226.283 192.095 C 226.379 191.598,226.375 190.878,226.275 190.495 C 226.175 190.113,226.096 190.520,226.101 191.400 M143.314 194.200 C 143.317 195.300,143.395 195.703,143.487 195.095 C 143.579 194.486,143.577 193.586,143.482 193.095 C 143.387 192.603,143.311 193.100,143.314 194.200 M268.179 205.800 C 268.179 213.060,268.233 216.086,268.299 212.525 C 268.365 208.964,268.366 203.024,268.299 199.325 C 268.233 195.626,268.179 198.540,268.179 205.800 M332.101 195.400 C 332.105 196.280,332.187 196.593,332.283 196.095 C 332.379 195.598,332.375 194.878,332.275 194.495 C 332.175 194.113,332.096 194.520,332.101 195.400 M226.093 196.000 C 226.093 196.770,226.175 197.085,226.276 196.700 C 226.376 196.315,226.376 195.685,226.276 195.300 C 226.175 194.915,226.093 195.230,226.093 196.000 M199.600 212.125 C 199.600 212.194,200.185 212.779,200.900 213.425 L 202.200 214.600 201.025 213.300 C 199.930 212.088,199.600 211.816,199.600 212.125 M176.517 235.497 C 178.011 235.574,180.351 235.574,181.717 235.496 C 183.082 235.418,181.860 235.355,179.000 235.355 C 176.140 235.356,175.022 235.420,176.517 235.497 M203.905 235.483 C 204.402 235.579,205.122 235.575,205.505 235.475 C 205.887 235.375,205.480 235.296,204.600 235.301 C 203.720 235.305,203.407 235.387,203.905 235.483 M188.951 240.000 C 188.951 242.530,189.016 243.565,189.096 242.300 C 189.175 241.035,189.175 238.965,189.096 237.700 C 189.016 236.435,188.951 237.470,188.951 240.000 M216.966 242.800 C 216.966 246.870,217.025 248.535,217.098 246.500 C 217.171 244.465,217.171 241.135,217.098 239.100 C 217.025 237.065,216.966 238.730,216.966 242.800 M31.867 242.267 C 31.720 242.413,31.603 242.728,31.606 242.967 C 31.610 243.225,31.740 243.198,31.929 242.901 C 32.179 242.507,45.251 242.381,94.223 242.300 L 156.200 242.197 94.167 242.099 C 60.048 242.044,32.013 242.120,31.867 242.267 M271.700 242.300 C 288.805 242.358,316.795 242.358,333.900 242.300 C 351.005 242.242,337.010 242.195,302.800 242.195 C 268.590 242.195,254.595 242.242,271.700 242.300 M205.300 249.076 C 205.685 249.176,206.315 249.176,206.700 249.076 C 207.085 248.975,206.770 248.893,206.000 248.893 C 205.230 248.893,204.915 248.975,205.300 249.076 " stroke="none" fill="#74bc4c" fill-rule="evenodd"></path><path id="path3" d="M50.259 173.765 C 49.897 174.319,49.600 174.845,49.600 174.935 C 49.600 175.073,47.246 179.272,44.293 184.400 C 43.850 185.170,43.037 186.610,42.486 187.600 C 41.936 188.590,40.453 191.200,39.190 193.400 C 37.928 195.600,36.514 198.075,36.047 198.900 C 35.581 199.725,34.815 201.075,34.343 201.900 C 33.872 202.725,33.038 204.210,32.489 205.200 C 31.939 206.190,30.815 208.170,29.990 209.600 C 28.103 212.872,27.004 214.816,25.470 217.600 C 24.803 218.810,23.930 220.340,23.530 221.000 C 22.141 223.292,21.540 223.200,37.910 223.200 L 53.019 223.200 59.748 211.366 L 66.478 199.532 65.239 197.540 C 64.557 196.444,64.000 195.466,64.000 195.367 C 64.000 195.267,63.221 193.884,62.270 192.293 C 61.318 190.702,59.940 188.320,59.208 187.000 C 57.905 184.650,57.211 183.419,55.600 180.600 C 55.160 179.830,54.440 178.570,54.000 177.800 C 53.560 177.030,52.823 175.725,52.362 174.900 C 51.155 172.737,50.991 172.649,50.259 173.765 " stroke="none" fill="#4a93ce" fill-rule="evenodd"></path><path id="path4" d="M66.100 144.900 C 65.320 145.878,62.381 151.314,62.543 151.476 C 62.711 151.644,64.798 148.108,64.802 147.650 C 64.803 147.512,65.216 146.886,65.719 146.257 L 66.633 145.114 68.213 147.657 C 69.081 149.056,70.172 150.920,70.636 151.800 C 71.099 152.680,72.158 154.570,72.989 156.000 C 73.819 157.430,74.926 159.365,75.449 160.300 C 79.980 168.402,80.484 169.249,80.666 169.067 C 80.762 168.971,80.067 167.567,79.120 165.946 C 78.174 164.326,77.130 162.460,76.801 161.800 C 76.471 161.140,76.111 160.510,76.001 160.400 C 75.767 160.167,75.125 159.048,73.475 156.000 C 72.820 154.790,72.155 153.620,71.996 153.400 C 71.837 153.180,71.258 152.190,70.709 151.200 C 69.006 148.132,66.768 144.400,66.630 144.400 C 66.557 144.400,66.319 144.625,66.100 144.900 M316.800 148.354 C 323.223 148.977,326.326 152.778,324.846 158.210 C 323.578 162.865,316.333 165.056,311.001 162.397 C 305.002 159.406,305.855 151.048,312.400 148.680 C 312.851 148.517,312.815 148.455,312.254 148.432 C 307.799 148.243,304.772 156.658,307.873 160.611 C 311.815 165.637,322.722 164.772,325.035 159.251 C 327.476 153.424,323.822 148.383,317.000 148.166 L 313.800 148.064 316.800 148.354 M61.414 153.035 C 61.041 153.604,60.827 154.161,60.939 154.272 C 61.050 154.383,61.429 153.918,61.781 153.237 C 62.559 151.733,62.344 151.615,61.414 153.035 M118.098 186.492 L 118.200 219.400 126.400 219.513 C 130.910 219.576,135.006 219.527,135.502 219.405 L 136.405 219.184 136.302 186.492 L 136.200 153.800 127.098 153.692 L 117.995 153.585 118.098 186.492 M135.600 186.600 L 135.600 219.200 127.000 219.200 L 118.400 219.200 118.400 186.600 L 118.400 154.000 127.000 154.000 L 135.600 154.000 135.600 186.600 M59.846 155.786 C 59.491 156.328,59.200 156.943,59.200 157.153 C 59.200 157.362,59.065 157.593,58.900 157.667 C 58.735 157.740,58.080 158.790,57.444 160.000 C 56.153 162.456,56.617 162.297,58.029 159.800 C 58.526 158.920,59.369 157.435,59.901 156.500 C 60.943 154.668,60.905 154.169,59.846 155.786 M54.565 165.100 C 53.738 166.585,52.713 168.430,52.288 169.200 C 51.863 169.970,51.380 170.780,51.215 171.000 C 50.740 171.634,50.436 173.225,50.837 172.977 C 51.037 172.854,51.200 172.439,51.200 172.056 C 51.200 171.673,51.363 171.189,51.562 170.980 C 51.762 170.771,52.327 169.880,52.818 169.000 C 55.678 163.880,56.452 162.400,56.271 162.400 C 56.160 162.400,55.392 163.615,54.565 165.100 M164.800 167.821 C 158.759 168.746,155.444 170.017,152.000 172.729 C 146.758 176.855,143.151 184.234,143.262 190.600 L 143.298 192.600 143.628 190.200 C 144.999 180.250,148.683 174.503,156.095 170.748 C 163.375 167.059,175.881 167.079,184.275 170.792 C 186.250 171.666,186.204 171.551,185.360 173.513 C 185.008 174.331,184.577 175.450,184.402 176.000 C 184.227 176.550,183.948 177.360,183.783 177.800 C 183.578 178.344,183.614 178.472,183.893 178.200 C 184.119 177.980,184.529 177.080,184.804 176.200 C 185.079 175.320,185.440 174.420,185.606 174.200 C 187.094 172.227,185.165 169.600,182.228 169.600 C 181.909 169.600,181.548 169.440,181.427 169.244 C 181.188 168.857,180.592 168.734,174.600 167.831 C 169.938 167.129,169.324 167.128,164.800 167.821 M214.600 167.658 C 210.993 168.056,209.552 168.491,205.400 170.435 C 203.008 171.554,199.940 173.990,198.721 175.736 C 198.194 176.491,198.788 176.061,200.196 174.667 C 208.039 166.904,223.803 165.662,233.418 172.050 C 240.089 176.483,243.419 183.753,243.380 193.800 C 243.321 209.026,236.733 217.176,222.400 219.756 C 221.850 219.855,222.300 219.884,223.400 219.820 C 232.250 219.307,240.414 212.307,242.785 203.200 C 243.043 202.210,243.422 200.847,243.627 200.172 C 244.139 198.486,244.098 189.866,243.568 187.846 C 243.331 186.941,242.948 185.480,242.717 184.600 C 241.493 179.931,238.513 175.402,234.893 172.710 C 233.632 171.772,232.510 170.913,232.400 170.802 C 232.290 170.690,231.660 170.353,231.000 170.053 C 230.340 169.752,229.487 169.348,229.105 169.153 C 228.723 168.959,228.136 168.800,227.800 168.800 C 227.464 168.800,226.877 168.633,226.495 168.429 C 225.657 167.982,220.494 167.179,218.923 167.252 C 218.305 167.281,216.360 167.464,214.600 167.658 M278.928 167.752 C 277.348 167.998,275.923 168.335,275.761 168.500 C 275.599 168.665,275.127 168.800,274.711 168.800 C 273.743 168.800,269.737 171.525,268.273 173.180 C 267.144 174.456,266.000 174.365,266.000 173.000 C 266.000 172.321,264.794 169.472,264.592 169.674 C 264.341 169.926,266.110 174.566,266.580 174.886 C 266.811 175.044,267.900 174.306,269.000 173.248 C 277.071 165.479,291.769 166.273,297.169 174.769 C 299.939 179.127,300.000 179.681,300.000 200.474 L 300.000 219.216 291.700 219.108 L 283.400 219.000 283.184 203.000 C 283.038 192.269,282.819 186.737,282.517 186.200 C 282.269 185.760,281.861 184.842,281.610 184.160 C 280.788 181.930,277.028 180.557,274.600 181.600 C 274.042 181.840,274.610 181.952,276.475 181.972 C 282.105 182.031,282.386 183.030,282.394 203.020 C 282.398 214.629,282.523 218.763,282.880 219.120 C 283.648 219.888,299.744 219.791,300.388 219.014 C 301.107 218.148,300.747 181.976,299.999 180.000 C 296.189 169.928,289.585 166.089,278.928 167.752 M353.400 167.825 C 348.276 168.678,347.489 168.876,346.095 169.659 C 345.369 170.067,344.589 170.400,344.360 170.400 C 342.470 170.400,334.400 178.484,334.400 180.377 C 334.400 180.802,334.196 181.288,333.262 183.095 C 333.008 183.587,332.800 184.521,332.800 185.171 C 332.800 185.821,332.647 186.447,332.460 186.563 C 332.274 186.678,332.011 188.197,331.877 189.937 C 331.742 191.678,331.595 193.259,331.548 193.451 C 331.343 194.300,332.139 202.039,332.452 202.232 C 332.643 202.350,332.800 202.971,332.800 203.611 C 332.800 204.252,333.160 205.417,333.600 206.200 C 334.040 206.983,334.400 207.853,334.400 208.132 C 334.400 212.508,346.275 220.188,352.658 219.940 C 353.950 219.890,354.006 219.857,353.000 219.736 C 336.908 217.804,328.794 203.795,333.112 185.400 C 336.692 170.148,355.544 163.379,373.300 170.970 C 375.034 171.711,375.076 171.884,374.000 173.800 C 373.560 174.583,373.200 175.444,373.201 175.712 C 373.202 175.980,372.860 176.920,372.441 177.800 C 371.071 180.677,370.362 182.496,370.541 182.674 C 370.733 182.867,372.000 180.487,372.000 179.934 C 372.000 179.607,372.308 178.860,374.390 174.141 C 374.889 173.009,375.175 171.883,375.024 171.638 C 374.656 171.044,371.628 169.600,370.748 169.600 C 370.363 169.600,369.949 169.441,369.829 169.246 C 369.004 167.911,358.394 166.994,353.400 167.825 M251.100 168.432 C 250.209 168.951,249.995 218.235,250.880 219.120 C 251.417 219.657,267.448 219.818,268.250 219.294 C 268.565 219.089,268.758 214.540,268.891 204.200 C 269.011 194.928,269.243 189.027,269.513 188.400 C 269.750 187.850,270.061 186.864,270.203 186.209 C 270.345 185.554,271.212 184.303,272.130 183.429 C 273.538 182.088,273.611 181.950,272.594 182.550 C 271.282 183.324,269.600 185.610,269.600 186.621 C 269.600 186.968,269.378 187.646,269.106 188.126 C 268.749 188.757,268.555 193.169,268.406 204.000 L 268.200 219.000 259.800 219.000 L 251.400 219.000 251.400 194.000 L 251.400 169.000 257.900 169.000 C 263.987 169.000,265.299 168.831,263.767 168.243 C 262.704 167.835,251.847 167.997,251.100 168.432 M307.500 168.432 C 306.474 169.030,306.408 218.964,307.433 219.357 C 308.691 219.840,324.213 219.627,324.720 219.120 C 325.354 218.486,325.417 169.953,324.786 168.774 C 324.313 167.890,308.952 167.586,307.500 168.432 M324.400 194.008 L 324.400 219.216 315.900 219.108 L 307.400 219.000 307.296 194.400 C 307.239 180.870,307.279 169.575,307.384 169.300 C 307.528 168.922,309.626 168.800,315.987 168.800 L 324.400 168.800 324.400 194.008 M80.809 169.623 C 80.787 170.172,85.691 179.189,86.909 180.839 L 87.618 181.800 87.050 180.600 C 86.737 179.940,85.563 177.811,84.441 175.868 C 83.318 173.926,82.396 172.126,82.391 171.868 C 82.382 171.404,80.826 169.195,80.809 169.623 M47.800 177.600 C 47.459 178.260,47.269 178.800,47.379 178.800 C 47.489 178.800,47.859 178.260,48.200 177.600 C 48.541 176.940,48.731 176.400,48.621 176.400 C 48.511 176.400,48.141 176.940,47.800 177.600 M195.812 180.202 C 193.373 185.139,192.103 196.663,193.573 200.528 C 193.808 201.146,194.000 202.012,194.000 202.452 C 194.000 203.615,196.596 209.051,197.891 210.601 C 198.501 211.331,199.538 212.574,200.196 213.364 C 200.854 214.154,201.537 214.800,201.714 214.800 C 201.891 214.800,202.485 215.249,203.033 215.797 C 204.911 217.675,211.503 220.044,214.599 219.953 C 216.088 219.910,216.046 219.882,214.000 219.562 C 204.232 218.034,197.293 211.959,194.514 202.500 C 192.894 196.986,193.472 186.559,195.668 181.690 C 196.291 180.309,196.800 179.064,196.800 178.921 C 196.800 178.779,197.098 178.334,197.462 177.931 C 197.826 177.529,197.938 177.200,197.710 177.200 C 197.482 177.200,196.628 178.551,195.812 180.202 M183.094 179.100 C 183.010 179.265,182.716 180.120,182.439 181.000 C 181.435 184.199,181.449 184.195,176.701 182.606 C 172.514 181.205,169.509 180.865,167.800 181.600 C 167.265 181.830,168.117 181.953,170.373 181.972 C 173.947 182.002,176.590 182.686,180.886 184.696 C 181.228 184.856,182.976 181.454,183.350 179.900 C 183.596 178.879,183.446 178.409,183.094 179.100 M46.151 180.500 C 45.783 181.215,45.219 182.250,44.898 182.800 C 44.339 183.759,44.343 183.767,44.989 183.000 C 45.778 182.063,47.307 179.200,47.018 179.200 C 46.910 179.200,46.519 179.785,46.151 180.500 M215.800 181.156 C 211.522 183.130,209.855 189.610,211.235 198.892 C 212.310 206.119,217.972 209.710,222.459 206.012 C 227.879 201.545,227.026 181.421,221.409 181.214 C 221.194 181.206,221.671 181.739,222.470 182.397 C 227.090 186.205,226.540 203.150,221.705 206.003 C 215.582 209.615,210.562 202.915,211.338 192.166 C 211.942 183.789,213.576 181.321,218.600 181.201 C 220.329 181.160,220.776 181.048,220.200 180.800 C 218.920 180.250,217.517 180.363,215.800 181.156 M355.800 181.683 C 354.300 182.207,351.863 183.996,352.195 184.329 C 352.332 184.465,352.569 184.380,352.722 184.139 C 353.616 182.730,355.841 182.002,359.400 181.954 C 361.916 181.920,362.639 181.813,361.800 181.600 C 360.064 181.158,357.187 181.198,355.800 181.683 M87.621 182.048 C 87.609 182.185,88.770 184.309,90.200 186.770 C 91.630 189.230,92.800 191.413,92.800 191.622 C 92.800 191.830,92.995 192.000,93.234 192.000 C 93.473 192.000,93.181 191.145,92.584 190.100 C 91.988 189.055,90.938 187.192,90.250 185.961 C 88.853 183.458,87.653 181.672,87.621 182.048 M165.405 182.485 C 162.011 184.453,159.924 191.989,161.109 198.000 C 161.387 199.412,161.462 198.661,161.457 194.514 C 161.453 191.255,161.632 188.839,161.925 188.214 C 162.186 187.656,162.625 186.710,162.900 186.112 C 163.175 185.514,164.075 184.344,164.900 183.512 C 165.725 182.680,166.355 182.005,166.300 182.012 C 166.245 182.019,165.842 182.232,165.405 182.485 M364.000 182.475 C 364.550 182.706,365.450 183.075,366.000 183.295 C 366.550 183.514,367.313 183.852,367.695 184.047 C 368.916 184.668,370.403 184.475,370.368 183.700 C 370.350 183.282,370.256 183.201,370.135 183.500 C 369.848 184.211,369.261 184.131,366.477 183.000 C 365.123 182.450,363.787 182.012,363.508 182.027 C 363.229 182.042,363.450 182.244,364.000 182.475 M351.074 186.068 C 348.536 191.754,349.117 200.327,352.282 203.886 C 355.376 207.366,363.425 207.071,370.854 203.204 L 373.200 201.983 373.200 208.783 L 373.200 215.584 371.620 216.390 C 368.949 217.752,365.921 218.842,363.200 219.419 C 360.731 219.943,360.703 219.961,362.652 219.778 C 365.924 219.470,372.366 217.062,373.294 215.800 C 373.717 215.225,373.670 202.090,373.244 201.827 C 373.048 201.706,372.085 202.056,371.103 202.605 C 364.915 206.063,357.004 206.819,353.449 204.291 C 349.878 201.752,348.785 191.689,351.492 186.263 C 351.804 185.637,351.971 185.038,351.864 184.930 C 351.756 184.823,351.401 185.335,351.074 186.068 M41.000 189.600 C 40.659 190.260,40.469 190.800,40.579 190.800 C 40.689 190.800,41.059 190.260,41.400 189.600 C 41.741 188.940,41.931 188.400,41.821 188.400 C 41.711 188.400,41.341 188.940,41.000 189.600 M39.400 192.400 C 39.059 193.060,38.869 193.600,38.979 193.600 C 39.089 193.600,39.459 193.060,39.800 192.400 C 40.141 191.740,40.331 191.200,40.221 191.200 C 40.111 191.200,39.741 191.740,39.400 192.400 M37.800 195.200 C 37.459 195.860,37.269 196.400,37.379 196.400 C 37.489 196.400,37.859 195.860,38.200 195.200 C 38.541 194.540,38.731 194.000,38.621 194.000 C 38.511 194.000,38.141 194.540,37.800 195.200 M95.835 196.700 C 96.662 198.185,97.687 200.030,98.112 200.800 C 98.537 201.570,99.020 202.380,99.185 202.600 C 99.350 202.820,100.026 203.990,100.688 205.200 C 101.349 206.410,103.286 209.830,104.993 212.800 C 109.275 220.255,110.400 222.285,110.400 222.562 C 110.400 222.693,103.605 222.800,95.300 222.800 L 80.200 222.800 78.000 218.948 C 76.790 216.830,75.170 213.977,74.400 212.610 C 73.630 211.243,72.681 209.691,72.291 209.162 L 71.582 208.200 72.150 209.400 C 72.463 210.060,73.637 212.189,74.759 214.132 C 75.882 216.074,76.800 217.829,76.800 218.032 C 76.800 218.234,76.935 218.403,77.100 218.406 C 77.265 218.410,77.850 219.330,78.400 220.453 C 80.023 223.764,79.132 223.601,95.589 223.594 C 103.625 223.591,110.437 223.438,110.726 223.254 C 111.271 222.909,110.909 222.114,107.887 217.021 C 106.198 214.173,105.261 212.529,103.887 210.000 C 103.229 208.790,102.107 206.810,101.394 205.600 C 100.680 204.390,99.665 202.590,99.139 201.600 C 97.669 198.833,94.731 194.000,94.520 194.000 C 94.416 194.000,95.008 195.215,95.835 196.700 M143.253 198.172 C 143.224 199.476,143.374 201.096,143.586 201.772 C 144.375 204.283,145.170 206.640,145.686 208.000 C 146.444 209.995,148.959 213.323,150.708 214.644 C 151.528 215.264,152.439 216.004,152.731 216.288 C 154.293 217.808,161.297 220.041,164.226 219.952 C 165.448 219.915,165.128 219.790,162.800 219.392 C 151.213 217.413,145.117 210.740,143.620 198.400 L 143.305 195.800 143.253 198.172 M35.053 200.100 L 34.333 201.400 35.158 200.400 C 35.889 199.513,36.214 198.800,35.886 198.800 C 35.824 198.800,35.449 199.385,35.053 200.100 M65.962 200.474 C 65.511 201.321,65.527 201.352,66.144 200.843 C 66.931 200.194,66.813 200.099,68.089 202.400 C 70.515 206.776,70.899 207.423,71.293 207.800 C 71.523 208.020,71.030 206.940,70.198 205.400 C 69.365 203.860,68.437 202.124,68.134 201.542 C 67.195 199.737,66.529 199.410,65.962 200.474 M161.826 200.900 C 163.740 207.044,172.790 208.028,182.484 203.147 C 183.300 202.736,184.065 202.400,184.184 202.400 C 184.303 202.400,184.400 205.355,184.400 208.966 L 184.400 215.532 182.545 216.568 C 180.319 217.813,176.542 219.067,173.800 219.473 C 171.936 219.748,171.894 219.779,173.184 219.916 C 174.757 220.083,180.835 218.262,182.462 217.135 C 183.046 216.731,183.714 216.400,183.948 216.400 C 185.341 216.400,185.931 202.255,184.560 201.729 C 184.207 201.594,183.802 201.655,183.660 201.864 C 183.279 202.423,180.070 203.842,177.574 204.557 C 169.448 206.884,164.706 205.912,162.659 201.500 C 161.892 199.849,161.385 199.483,161.826 200.900 M63.000 205.600 C 62.659 206.260,62.469 206.800,62.579 206.800 C 62.689 206.800,63.059 206.260,63.400 205.600 C 63.741 204.940,63.931 204.400,63.821 204.400 C 63.711 204.400,63.341 204.940,63.000 205.600 M31.000 207.200 C 30.659 207.860,30.469 208.400,30.579 208.400 C 30.689 208.400,31.059 207.860,31.400 207.200 C 31.741 206.540,31.931 206.000,31.821 206.000 C 31.711 206.000,31.341 206.540,31.000 207.200 M29.400 210.000 C 29.059 210.660,28.869 211.200,28.979 211.200 C 29.089 211.200,29.459 210.660,29.800 210.000 C 30.141 209.340,30.331 208.800,30.221 208.800 C 30.111 208.800,29.741 209.340,29.400 210.000 M57.053 216.100 L 56.333 217.400 57.158 216.400 C 57.889 215.513,58.214 214.800,57.886 214.800 C 57.824 214.800,57.449 215.385,57.053 216.100 M24.200 219.200 C 23.859 219.860,23.669 220.400,23.779 220.400 C 23.889 220.400,24.259 219.860,24.600 219.200 C 24.941 218.540,25.131 218.000,25.021 218.000 C 24.911 218.000,24.541 218.540,24.200 219.200 M167.900 220.282 C 168.395 220.378,169.205 220.378,169.700 220.282 C 170.195 220.187,169.790 220.109,168.800 220.109 C 167.810 220.109,167.405 220.187,167.900 220.282 M217.305 220.287 C 217.914 220.379,218.814 220.377,219.305 220.282 C 219.797 220.187,219.300 220.111,218.200 220.114 C 217.100 220.117,216.697 220.195,217.305 220.287 M356.905 220.287 C 357.514 220.379,358.414 220.377,358.905 220.282 C 359.397 220.187,358.900 220.111,357.800 220.114 C 356.700 220.117,356.297 220.195,356.905 220.287 M53.345 222.600 C 53.057 223.351,22.800 223.525,22.800 222.776 C 22.800 222.543,22.620 222.464,22.400 222.600 C 21.013 223.457,23.177 223.600,37.586 223.600 C 52.762 223.600,53.183 223.579,53.600 222.800 C 53.835 222.360,53.926 222.000,53.802 222.000 C 53.677 222.000,53.471 222.270,53.345 222.600 M168.536 235.368 C 170.666 235.826,171.577 236.415,171.594 237.347 C 171.597 237.537,171.195 237.568,170.700 237.414 C 168.935 236.867,167.668 236.746,169.000 237.252 C 169.660 237.502,170.398 237.863,170.639 238.052 C 170.908 238.263,171.336 238.112,171.743 237.664 C 172.850 236.440,170.117 234.736,167.203 234.834 C 166.651 234.852,167.251 235.093,168.536 235.368 M164.600 235.644 C 161.142 237.330,162.565 241.827,167.200 243.861 C 170.462 245.293,171.134 246.485,169.525 247.984 C 168.410 249.022,167.491 249.012,165.270 247.937 C 162.163 246.433,160.903 248.269,163.906 249.926 C 168.105 252.242,172.511 250.466,172.571 246.433 C 172.607 243.988,171.998 243.275,168.377 241.527 C 164.914 239.854,164.260 238.370,166.509 237.284 C 167.132 236.984,167.208 236.846,166.762 236.827 C 166.411 236.812,165.793 237.165,165.389 237.612 C 164.089 239.049,164.958 240.315,168.485 242.118 C 173.047 244.450,173.783 247.975,170.118 249.937 C 167.958 251.093,161.565 249.463,162.925 248.103 C 163.435 247.594,163.626 247.598,164.454 248.140 C 166.176 249.267,168.459 249.383,169.701 248.406 C 171.827 246.734,170.815 244.856,166.889 243.188 C 164.574 242.205,163.200 240.654,163.200 239.024 C 163.200 237.777,164.271 236.000,165.022 236.000 C 165.314 236.000,165.664 235.820,165.800 235.600 C 166.103 235.110,165.662 235.126,164.600 235.644 M173.654 236.100 C 173.601 237.173,173.653 237.200,175.800 237.200 L 178.000 237.200 178.000 243.813 C 178.000 249.566,178.085 250.458,178.654 250.676 C 180.340 251.323,180.594 250.456,180.710 243.657 L 180.820 237.200 182.377 237.200 C 183.234 237.200,184.219 237.091,184.567 236.957 C 185.351 236.657,185.409 235.200,184.637 235.200 C 184.277 235.200,184.148 235.480,184.278 235.978 C 184.458 236.666,184.237 236.769,182.341 236.878 L 180.200 237.000 180.000 243.595 C 179.822 249.465,179.723 250.205,179.100 250.325 C 178.455 250.448,178.400 249.918,178.400 243.629 L 178.400 236.800 176.228 236.800 C 174.293 236.800,174.037 236.702,173.882 235.900 C 173.734 235.128,173.701 235.157,173.654 236.100 M187.200 241.008 C 187.200 248.989,188.258 250.800,192.920 250.800 C 195.382 250.800,196.781 249.971,197.870 247.865 C 198.778 246.109,199.196 235.200,198.355 235.199 C 197.902 235.199,197.822 236.237,197.922 240.850 C 198.092 248.745,197.181 250.400,192.669 250.400 C 188.595 250.400,187.482 248.119,187.678 240.173 C 187.745 237.437,187.665 235.199,187.500 235.199 C 187.335 235.200,187.200 237.814,187.200 241.008 M188.653 235.506 C 188.939 235.692,189.168 237.791,189.272 241.200 C 189.454 247.088,189.758 248.037,191.726 248.852 C 195.155 250.272,196.566 247.930,196.650 240.681 L 196.716 235.000 196.415 240.400 C 195.970 248.374,194.401 250.557,191.044 247.871 L 189.888 246.946 189.689 241.073 C 189.517 236.017,189.400 235.201,188.845 235.206 C 188.425 235.210,188.358 235.315,188.653 235.506 M202.267 235.467 C 202.120 235.613,202.000 239.030,202.000 243.059 L 202.000 250.385 203.042 250.646 C 205.251 251.201,209.264 250.488,210.777 249.272 C 215.940 245.123,213.858 235.815,207.663 235.355 L 205.800 235.217 207.400 235.612 C 211.574 236.644,213.010 238.493,212.984 242.800 C 212.954 247.836,210.974 249.897,205.786 250.290 L 202.766 250.518 202.883 242.859 C 202.993 235.644,202.924 234.810,202.267 235.467 M216.400 242.773 C 216.400 250.116,216.426 250.354,217.240 250.613 C 218.694 251.074,218.822 250.371,218.700 242.571 L 218.581 235.000 218.491 242.729 C 218.407 249.848,218.345 250.448,217.700 250.324 C 216.788 250.149,216.399 236.102,217.290 235.536 C 217.662 235.300,217.610 235.211,217.100 235.206 C 216.458 235.201,216.400 235.825,216.400 242.773 M224.554 236.074 C 223.919 236.555,223.325 237.005,223.233 237.074 C 223.142 237.143,223.155 237.288,223.262 237.396 C 223.370 237.503,223.813 237.261,224.247 236.856 C 224.681 236.452,225.568 235.928,226.218 235.692 C 227.167 235.348,227.233 235.257,226.554 235.232 C 226.089 235.214,225.189 235.593,224.554 236.074 M230.728 235.873 C 235.389 238.170,235.796 246.609,231.385 249.500 C 228.602 251.324,224.975 250.417,223.162 247.445 C 222.745 246.760,222.402 246.431,222.401 246.714 C 222.392 249.897,228.617 252.124,231.596 250.003 C 236.714 246.358,235.440 235.112,229.920 235.209 C 229.634 235.214,229.998 235.513,230.728 235.873 M204.243 237.433 C 203.603 239.101,204.029 248.799,204.743 248.801 C 204.884 248.801,204.946 246.169,204.879 242.952 L 204.758 237.103 206.679 237.387 C 207.736 237.544,208.660 237.836,208.733 238.036 C 208.807 238.236,209.077 238.401,209.333 238.403 C 210.121 238.408,210.800 240.444,210.800 242.800 C 210.800 246.172,210.085 247.316,207.443 248.173 C 206.346 248.529,206.978 248.943,208.163 248.645 C 212.078 247.663,212.603 239.972,208.922 237.545 C 207.500 236.608,204.586 236.538,204.243 237.433 M225.241 238.214 C 224.559 238.992,223.998 240.027,223.995 240.514 C 223.992 241.001,223.904 241.850,223.800 242.400 C 223.696 242.950,223.807 242.770,224.047 242.000 C 225.011 238.904,225.361 238.336,226.757 237.598 C 227.909 236.989,228.027 236.832,227.341 236.818 C 226.844 236.807,225.960 237.395,225.241 238.214 M229.924 237.610 C 231.461 238.547,232.377 240.458,232.454 242.887 C 232.488 243.931,232.580 244.224,232.690 243.637 C 233.226 240.801,231.263 236.798,229.340 236.801 C 228.812 236.803,228.980 237.035,229.924 237.610 M221.867 239.867 C 221.491 240.242,221.545 244.895,221.932 245.504 C 222.109 245.782,222.253 244.567,222.253 242.804 C 222.253 241.042,222.226 239.600,222.193 239.600 C 222.160 239.600,222.013 239.720,221.867 239.867 M31.354 242.175 C 30.516 244.358,25.629 244.190,93.205 244.310 C 159.889 244.428,156.911 244.494,156.725 242.886 L 156.600 241.800 94.088 241.699 C 39.889 241.611,31.546 241.674,31.354 242.175 M240.475 242.900 L 240.600 244.200 302.885 244.301 C 364.070 244.401,365.178 244.389,365.584 243.630 C 366.742 241.466,370.888 241.600,302.932 241.600 L 240.349 241.600 240.475 242.900 M156.000 242.800 C 156.000 243.597,155.733 243.600,94.024 243.600 C 33.407 243.600,31.086 243.555,31.800 242.400 C 32.361 241.492,156.000 241.890,156.000 242.800 M365.124 242.900 C 365.252 243.564,362.080 243.600,303.029 243.600 C 241.034 243.600,240.800 243.597,240.800 242.799 C 240.800 241.621,364.897 241.722,365.124 242.900 M224.009 244.877 C 223.984 246.823,227.009 249.661,228.480 249.072 C 228.809 248.940,228.738 248.852,228.286 248.832 C 227.027 248.776,225.507 247.479,224.752 245.817 C 224.348 244.928,224.014 244.505,224.009 244.877 M231.824 245.848 C 231.537 246.989,231.036 247.600,229.800 248.314 C 229.144 248.692,229.120 248.778,229.664 248.788 C 230.511 248.803,232.400 246.581,232.400 245.569 C 232.400 244.485,232.133 244.614,231.824 245.848 " stroke="none" fill="#aaaaaa" fill-rule="evenodd"></path></g></svg>